Hanif_Shallow_5_0_grf.mot
version=1
nRows=21
nColumns=19
inDegrees=yes
endheader
time	right_ground_force_vx	right_ground_force_vy	right_ground_force_vz	right_ground_force_px	right_ground_force_py	right_ground_force_pz	right_ground_torque_x	right_ground_torque_y	right_ground_torque_z	left_ground_force_vx	left_ground_force_vy	left_ground_force_vz	left_ground_force_px	left_ground_force_py	left_ground_force_pz	left_ground_torque_x	left_ground_torque_y	left_ground_torque_z
4.400000	-0.024658	273.155000	57.339100	0.211309	0.000000	-1.433420	-19.824600	1.138380	3.464610	-4.458620	294.082000	-61.244700	0.225669	0.000000	-0.978089	22.153100	-2.770600	8.522780
4.405000	0.243035	271.810000	57.075400	0.211602	0.000000	-1.433860	-19.608000	1.245390	3.550550	-4.922470	293.285000	-61.551900	0.226742	0.000000	-0.977943	22.060700	-2.819100	8.857650
4.410000	0.762359	271.980000	57.222400	0.211365	0.000000	-1.433480	-19.718500	1.162910	3.460870	-4.884910	293.967000	-61.317800	0.227022	0.000000	-0.978715	22.336300	-2.704270	8.930480
4.415000	-0.088337	271.239000	56.893500	0.211917	0.000000	-1.434110	-19.500700	1.130750	3.613050	-4.579710	294.668000	-61.402600	0.226674	0.000000	-0.977928	22.151900	-2.722410	8.840050
4.420000	0.612855	271.906000	57.325300	0.211297	0.000000	-1.434110	-19.542200	1.176870	3.446980	-5.006510	293.658000	-61.313200	0.226997	0.000000	-0.977988	22.102600	-2.771420	8.930480
4.425000	0.365541	271.349000	57.064500	0.210489	0.000000	-1.435030	-19.254100	1.168940	3.212560	-4.863960	295.024000	-61.227700	0.226698	0.000000	-0.977274	21.990900	-2.753660	8.862380
4.430000	0.816010	269.397000	57.389800	0.212012	0.000000	-1.434400	-19.284400	1.102860	3.605400	-5.374690	293.216000	-61.721100	0.227698	0.000000	-0.978458	22.215200	-2.775020	9.150900
4.435000	0.406728	268.985000	57.757500	0.211267	0.000000	-1.433180	-19.583700	1.106160	3.401630	-4.997880	296.065000	-61.390600	0.227357	0.000000	-0.978529	22.442500	-2.743620	9.094870
4.440000	0.748228	270.452000	58.007500	0.210984	0.000000	-1.433510	-19.599700	1.123090	3.336490	-5.523780	293.679000	-61.287800	0.226928	0.000000	-0.978450	22.249600	-2.790570	8.921800
4.445000	0.213755	268.324000	57.421300	0.210747	0.000000	-1.433780	-19.376800	1.147660	3.257990	-4.811020	296.119000	-61.979300	0.227420	0.000000	-0.977339	22.092900	-2.852310	9.147060
4.450000	0.254551	266.959000	57.674400	0.210689	0.000000	-1.432270	-19.681400	1.167390	3.234720	-4.951980	295.077000	-61.636200	0.228054	0.000000	-0.978403	22.331600	-2.773160	9.296660
4.455000	1.060500	268.289000	58.087400	0.210418	0.000000	-1.434400	-19.201300	1.277430	3.186290	-5.249430	296.429000	-61.297800	0.227542	0.000000	-0.978597	22.494900	-2.758630	9.165790
4.460000	1.758500	268.178000	57.559500	0.209510	0.000000	-1.434470	-19.173400	1.184090	2.894990	-5.272400	295.844000	-61.566100	0.227947	0.000000	-0.978437	22.404300	-2.743600	9.279740
4.465000	2.185060	269.671000	57.365300	0.209889	0.000000	-1.434130	-19.366600	1.247820	3.019380	-4.901800	295.091000	-61.658900	0.229026	0.000000	-0.978727	22.426300	-2.650370	9.570540
4.470000	2.744120	268.296000	57.876400	0.207773	0.000000	-1.433460	-19.443800	1.524510	2.468530	-5.679280	296.862000	-61.806600	0.228342	0.000000	-0.979648	22.848000	-2.727010	9.436850
4.475000	2.777130	267.535000	57.642400	0.208588	0.000000	-1.434760	-19.041200	1.526230	2.690340	-4.829350	295.878000	-61.552000	0.229097	0.000000	-0.979295	22.653400	-2.693330	9.618810
4.480000	3.677720	266.441000	57.944300	0.208166	0.000000	-1.434630	-18.991400	1.539280	2.556280	-5.256670	295.898000	-61.375000	0.229211	0.000000	-0.979777	22.805800	-2.728290	9.665060
4.485000	3.986770	268.225000	57.762400	0.207500	0.000000	-1.434800	-19.073100	1.543570	2.376300	-5.070370	296.900000	-61.550700	0.228674	0.000000	-0.979380	22.758400	-2.597280	9.497970
4.490000	4.617890	270.450000	57.765600	0.207036	0.000000	-1.435680	-18.989300	1.658540	2.274490	-5.217790	297.381000	-61.134700	0.229236	0.000000	-0.980321	23.079700	-2.692590	9.698040
4.495000	4.302920	266.746000	57.936700	0.206078	0.000000	-1.434560	-19.028100	1.696840	1.999630	-4.457040	298.722000	-61.651300	0.228705	0.000000	-0.980246	23.145700	-2.625160	9.552970
4.500000	3.802260	265.314000	58.145600	0.206674	0.000000	-1.435070	-18.793100	1.670840	2.162700	-4.329860	296.614000	-61.678500	0.229365	0.000000	-0.980359	23.016100	-2.675490	9.712720
